<?xml version="1.0" encoding="UTF-8"?>
<svg version="1.1" xmlns="http://www.w3.org/2000/svg" width="500" height="500">
<path d="M0 0 C165 0 330 0 500 0 C500 165 500 330 500 500 C335 500 170 500 0 500 C0 335 0 170 0 0 Z " fill="#FEFEFF" transform="translate(0,0)"/>
<path d="M0 0 C0.70382812 0.20367187 1.40765625 0.40734375 2.1328125 0.6171875 C30.58219843 8.99682481 53.83402002 28.90768069 67.99316406 54.81738281 C71.7177132 61.9188565 74.57165534 69.19746715 76.875 76.875 C77.07834961 77.55216064 77.28169922 78.22932129 77.49121094 78.92700195 C82.49184735 96.70006108 82.30444473 119.39888796 77 137 C76.70996094 137.9890332 76.70996094 137.9890332 76.4140625 138.99804688 C67.76330412 167.86060801 47.53593874 187.59943655 26.82421875 208.44921875 C26.06951609 209.20924509 25.31481342 209.96927143 24.53724098 210.75232887 C20.55882464 214.75722439 16.5769122 218.75860936 12.5925293 222.75756836 C9.30653667 226.0570003 6.0280111 229.36359679 2.75561523 232.67651367 C-1.2206524 236.70197903 -5.20894433 240.71514227 -9.20631981 244.71964455 C-10.72122813 246.24126635 -12.23187791 247.76714044 -13.73812294 249.29733849 C-15.83641447 251.42714499 -17.94981994 253.5407461 -20.06762695 255.65112305 C-20.6833255 256.28322693 -21.29902405 256.91533081 -21.93338013 257.56658936 C-24.49275717 260.08934401 -26.63978032 261.83120802 -29.91195679 263.36448669 C-35.09478147 262.75274958 -37.80650685 259.13957001 -41.34106445 255.51708984 C-42.15653748 254.70906418 -42.9720105 253.90103851 -43.81219482 253.06852722 C-46.51337937 250.38290021 -49.18840943 247.672754 -51.86328125 244.9609375 C-53.73763741 243.0836775 -55.61314265 241.20763252 -57.49003601 239.33291626 C-61.43021167 235.39174979 -65.35642557 231.4370911 -69.27416992 227.47363281 C-73.77716826 222.91832322 -78.29882944 218.38226603 -82.83192092 213.85691488 C-87.21235532 209.48345368 -91.58116735 205.09856594 -95.94426537 200.70781326 C-97.79035346 198.85157644 -99.63894496 196.99782561 -101.49016762 195.14670944 C-110.95048915 185.67179515 -120.06329978 176.52343042 -127 165 C-127.43356812 164.29277802 -127.86713623 163.58555603 -128.31384277 162.85690308 C-137.62726701 146.93012389 -142.18845193 128.5072417 -142.24023438 110.20214844 C-142.24980922 108.1655786 -142.28080618 106.13007781 -142.3125 104.09375 C-142.5212781 78.47022298 -132.83591478 54.24104546 -116 35 C-115.41089844 34.2678125 -114.82179687 33.535625 -114.21484375 32.78125 C-97.86803117 13.0678964 -73.57983193 2.04002863 -49 -3 C-48.21270508 -3.1757959 -47.42541016 -3.3515918 -46.61425781 -3.53271484 C-31.36209377 -6.25896083 -14.72196918 -4.48300565 0 0 Z " fill="#FEFEFF" transform="translate(281,121)"/>
<path d="M0 0 C0.70382812 0.20367187 1.40765625 0.40734375 2.1328125 0.6171875 C30.58219843 8.99682481 53.83402002 28.90768069 67.99316406 54.81738281 C71.7177132 61.9188565 74.57165534 69.19746715 76.875 76.875 C77.07834961 77.55216064 77.28169922 78.22932129 77.49121094 78.92700195 C82.49184735 96.70006108 82.30444473 119.39888796 77 137 C76.70996094 137.9890332 76.70996094 137.9890332 76.4140625 138.99804688 C67.76330412 167.86060801 47.53593874 187.59943655 26.82421875 208.44921875 C26.06951609 209.20924509 25.31481342 209.96927143 24.53724098 210.75232887 C20.55882464 214.75722439 16.5769122 218.75860936 12.5925293 222.75756836 C9.30653667 226.0570003 6.0280111 229.36359679 2.75561523 232.67651367 C-1.2206524 236.70197903 -5.20894433 240.71514227 -9.20631981 244.71964455 C-10.72122813 246.24126635 -12.23187791 247.76714044 -13.73812294 249.29733849 C-15.83641447 251.42714499 -17.94981994 253.5407461 -20.06762695 255.65112305 C-20.6833255 256.28322693 -21.29902405 256.91533081 -21.93338013 257.56658936 C-24.49275717 260.08934401 -26.63978032 261.83120802 -29.91195679 263.36448669 C-35.09478147 262.75274958 -37.80650685 259.13957001 -41.34106445 255.51708984 C-42.15653748 254.70906418 -42.9720105 253.90103851 -43.81219482 253.06852722 C-46.51337937 250.38290021 -49.18840943 247.672754 -51.86328125 244.9609375 C-53.73763741 243.0836775 -55.61314265 241.20763252 -57.49003601 239.33291626 C-61.43021167 235.39174979 -65.35642557 231.4370911 -69.27416992 227.47363281 C-73.77716826 222.91832322 -78.29882944 218.38226603 -82.83192092 213.85691488 C-87.21235532 209.48345368 -91.58116735 205.09856594 -95.94426537 200.70781326 C-97.79035346 198.85157644 -99.63894496 196.99782561 -101.49016762 195.14670944 C-110.95048915 185.67179515 -120.06329978 176.52343042 -127 165 C-127.43356812 164.29277802 -127.86713623 163.58555603 -128.31384277 162.85690308 C-137.62726701 146.93012389 -142.18845193 128.5072417 -142.24023438 110.20214844 C-142.24980922 108.1655786 -142.28080618 106.13007781 -142.3125 104.09375 C-142.5212781 78.47022298 -132.83591478 54.24104546 -116 35 C-115.41089844 34.2678125 -114.82179687 33.535625 -114.21484375 32.78125 C-97.86803117 13.0678964 -73.57983193 2.04002863 -49 -3 C-48.21270508 -3.1757959 -47.42541016 -3.3515918 -46.61425781 -3.53271484 C-31.36209377 -6.25896083 -14.72196918 -4.48300565 0 0 Z M-101 34 C-101.62519531 34.54011719 -102.25039062 35.08023438 -102.89453125 35.63671875 C-121.4134602 52.85455199 -131.2926271 78.35811012 -132.23828125 103.19140625 C-132.84980144 133.18910042 -121.89728224 159.33139236 -101.19815063 181.05950928 C-96.84009981 185.54092222 -92.39977791 189.93877586 -87.95703125 194.3359375 C-86.3354148 195.95194415 -84.71447019 197.56862522 -83.09416199 199.1859436 C-78.87097403 203.39779178 -74.6388504 207.60054412 -70.40466309 211.80133057 C-66.0682722 216.1067837 -61.74058406 220.420966 -57.41210938 224.734375 C-48.94979959 233.1647129 -40.47800382 241.58544704 -32 250 C-29.10547624 248.68793426 -27.02753698 247.28070372 -24.77694702 245.04437256 C-24.16325256 244.43920807 -23.54955811 243.83404358 -22.91726685 243.21054077 C-22.25540375 242.5477713 -21.59354065 241.88500183 -20.91162109 241.20214844 C-20.20533569 240.50258026 -19.49905029 239.80301208 -18.7713623 239.08224487 C-16.43336745 236.76327229 -14.10301296 234.43680345 -11.7734375 232.109375 C-10.14415897 230.48652688 -8.51473166 228.86382812 -6.88516235 227.24127197 C-3.46363969 223.83173651 -0.04628959 220.41807909 3.36865234 217.00195312 C7.71572107 212.65468238 12.0763126 208.32126562 16.44072914 203.99142075 C19.81599604 200.63856233 23.18196004 197.27647854 26.54551315 193.91187286 C28.14722775 192.31249819 29.75213932 190.71631783 31.36046219 189.12358856 C53.14562994 167.52975909 70.03465348 142.66930941 70.3293457 110.90551758 C70.32378662 109.86419678 70.31822754 108.82287598 70.3125 107.75 C70.30758545 106.65389404 70.3026709 105.55778809 70.29760742 104.4284668 C70.17541867 95.93979484 69.37419029 88.18951467 67 80 C66.50693359 78.29070312 66.50693359 78.29070312 66.00390625 76.546875 C61.05639676 61.27636127 52.79847362 48.70938781 42 37 C41.40703125 36.32582031 40.8140625 35.65164062 40.203125 34.95703125 C25.90754142 19.49373911 1.53499857 8.17087878 -19.34179688 6.77685547 C-23.08475486 6.6595707 -26.81770439 6.61957959 -30.5625 6.625 C-31.5573642 6.62631424 -31.5573642 6.62631424 -32.57232666 6.62765503 C-59.33586524 6.7441725 -80.89510179 16.48317346 -101 34 Z " fill="#9BC6FF" transform="translate(281,121)"/>
<path d="M0 0 C3.95978762 2.71734413 7.26401434 5.80700436 8.51953125 10.5546875 C8.8046875 12.76171875 8.8046875 12.76171875 8.9296875 16.32421875 C12.2296875 16.32421875 15.5296875 16.32421875 18.9296875 16.32421875 C12.71153 30.67054801 4.47378347 41.09629074 -9.0703125 49.32421875 C-10.19566406 50.02998047 -10.19566406 50.02998047 -11.34375 50.75 C-26.79504727 59.93945574 -46.22277858 60.3107659 -63.40625 56.421875 C-78.00137841 52.04956041 -91.08323456 42.66737342 -100.0703125 30.32421875 C-101.28515625 27.55859375 -101.28515625 27.55859375 -102.0703125 25.32421875 C-101.3071875 25.96359375 -100.5440625 26.60296875 -99.7578125 27.26171875 C-95.48312208 30.54229512 -91.32640809 31.00895781 -86.0703125 30.32421875 C-82.13804865 28.96155306 -79.55408222 27.01085964 -77.1328125 23.57421875 C-75.35751249 18.14388931 -75.10865878 14.2475262 -77.6953125 9.07421875 C-80.689411 5.60736785 -83.37838399 2.85183674 -88.0234375 1.94140625 C-93.12363618 1.64941014 -96.09564646 2.99659137 -100.0703125 6.32421875 C-103.12629923 9.61528138 -103.51683489 12.14023065 -103.7578125 16.57421875 C-103.82355469 17.651875 -103.88929688 18.72953125 -103.95703125 19.83984375 C-103.99441406 20.6596875 -104.03179687 21.47953125 -104.0703125 22.32421875 C-106.63596061 19.75857064 -107.20672143 17.84501313 -108.0703125 14.32421875 C-107.96432928 8.38915854 -106.23431334 5.48821959 -102.0703125 1.32421875 C-96.41381397 -2.76750957 -90.80939247 -2.42364462 -84.0703125 -1.67578125 C-79.15075152 -0.09540415 -75.88741267 3.04639997 -73.0703125 7.32421875 C-71.39613772 10.75627705 -71.0703125 12.40325708 -71.0703125 16.32421875 C-56.8803125 16.32421875 -42.6903125 16.32421875 -28.0703125 16.32421875 C-28.0703125 14.34421875 -28.0703125 12.36421875 -28.0703125 10.32421875 C-25.11742323 4.75915821 -21.17098151 0.99380975 -15.6328125 -1.98828125 C-9.74687723 -3.56743461 -5.24095978 -2.90597964 0 0 Z " fill="#9AC6FF" transform="translate(294.0703125,238.67578125)"/>
<path d="M0 0 C0.61359375 0.44859375 1.2271875 0.8971875 1.859375 1.359375 C13.75503376 10.63580614 21.50875128 25.30163257 24 40 C19.2201215 39.38038612 14.95356998 38.03142799 10.5 36.25 C9.86191406 36.01023438 9.22382813 35.77046875 8.56640625 35.5234375 C0.21476333 32.21010677 -4.37470557 26.57593163 -9.5625 19.5 C-15.95476983 10.25311062 -15.95476983 10.25311062 -25 4 C-27.21594783 3.68767414 -27.21594783 3.68767414 -29.58154297 3.70947266 C-30.48282928 3.69671295 -31.3841156 3.68395325 -32.31271362 3.67080688 C-33.27944 3.66858124 -34.24616638 3.66635559 -35.2421875 3.6640625 C-36.24331573 3.6574057 -37.24444397 3.6507489 -38.27590942 3.64389038 C-40.39241704 3.63377183 -42.5089565 3.62907311 -44.62548828 3.62939453 C-47.85633177 3.62502525 -51.08580473 3.5887072 -54.31640625 3.55078125 C-56.37499534 3.5449121 -58.4335909 3.54094337 -60.4921875 3.5390625 C-61.93620438 3.51750595 -61.93620438 3.51750595 -63.40939331 3.49551392 C-69.1164633 3.53420656 -72.53583974 4.08963356 -77 8 C-78.82460871 9.97665512 -78.82460871 9.97665512 -80.25390625 12.15234375 C-81.07084961 13.31733398 -81.07084961 13.31733398 -81.90429688 14.50585938 C-82.45150391 15.30830078 -82.99871094 16.11074219 -83.5625 16.9375 C-87.07933104 22.03382006 -90.43598454 26.76365745 -95 31 C-95.48082031 31.55300781 -95.96164063 32.10601562 -96.45703125 32.67578125 C-98.65014794 34.55797507 -100.96528072 35.25874283 -103.6875 36.1875 C-104.68136719 36.53167969 -105.67523438 36.87585938 -106.69921875 37.23046875 C-107.45847656 37.48441406 -108.21773437 37.73835938 -109 38 C-108.48115581 32.43683726 -107.03799082 28.20759844 -104.5 23.25 C-104.14470215 22.55261719 -103.7894043 21.85523438 -103.42333984 21.13671875 C-94.35115625 3.93481324 -79.7616074 -6.75181854 -61.71484375 -13.16796875 C-40.00774236 -19.01324384 -17.58017358 -13.64614872 0 0 Z " fill="#9AC5FF" transform="translate(293,176)"/>
<path d="M0 0 C4.8761665 -0.1151246 9.74757793 -0.21454423 14.62402344 -0.2746582 C16.28076189 -0.299726 17.93739059 -0.3337899 19.59375 -0.37719727 C21.98204684 -0.43819643 24.36887593 -0.46628526 26.7578125 -0.48828125 C27.49242706 -0.51408768 28.22704163 -0.5398941 28.98391724 -0.56648254 C32.86901513 -0.56857776 35.37193907 -0.08621282 38.35058594 2.33544922 C42.1572687 6.16388045 42.1572687 6.16388045 43.6328125 8.12109375 C44.04660156 8.66443359 44.46039063 9.20777344 44.88671875 9.76757812 C45.29535156 10.31865234 45.70398438 10.86972656 46.125 11.4375 C46.54136719 11.98470703 46.95773437 12.53191406 47.38671875 13.09570312 C50.0747204 16.6558307 52.51518939 20.27278409 55 24 C36.85 24 18.7 24 0 24 C0 16.08 0 8.16 0 0 Z " fill="#99C5FF" transform="translate(232,185)"/>
<path d="M0 0 C4.95520521 2.57289501 8.49116963 5.98233926 11 11 C11.61158195 16.9119589 10.91214784 20.40799509 7.48046875 25.30078125 C4.77950319 28.40083407 2.06758564 29.71509647 -1.984375 30.2734375 C-6.57496617 30.4977897 -9.37387899 29.74409158 -13 27 C-13.85851562 26.44441406 -14.71703125 25.88882812 -15.6015625 25.31640625 C-18 23 -18 23 -18.69921875 19.79296875 C-18.66367901 8.8585755 -18.66367901 8.8585755 -15.25 4.75 C-10.82503232 0.41442561 -6.15889332 -0.96307019 0 0 Z " fill="#FAFCFF" transform="translate(208,240)"/>
<path d="M0 0 C4.06001298 2.34545539 7.23769062 4.51204765 8.88671875 9.046875 C9.62589088 14.73850043 9.16443578 19.18681182 5.88671875 24.046875 C1.46138064 28.14031276 -1.9729238 29.41023897 -8.05078125 29.33203125 C-12.34288035 28.73861603 -15.15755622 26.13442417 -17.92578125 22.984375 C-20.62524596 18.57998522 -20.71365113 14.05567515 -20.11328125 9.046875 C-16.46929183 1.32161743 -8.46421793 -3.8175031 0 0 Z " fill="#FBFCFF" transform="translate(290.11328125,240.953125)"/>
<path d="M0 0 C0 7.92 0 15.84 0 24 C-6.6 24 -13.2 24 -20 24 C-15.49691449 16.11960035 -15.49691449 16.11960035 -13.30859375 13.359375 C-12.83873047 12.76382813 -12.36886719 12.16828125 -11.88476562 11.5546875 C-11.40716797 10.95914063 -10.92957031 10.36359375 -10.4375 9.75 C-9.71530273 8.83347656 -9.71530273 8.83347656 -8.97851562 7.8984375 C-2.70977757 0 -2.70977757 0 0 0 Z " fill="#9AC5FF" transform="translate(225,185)"/>
<path d="M0 0 C4.4297642 0.79102932 5.89210172 1.98974785 8.5 5.625 C9.20338515 9.37638748 8.76523868 11.09452264 7.0625 14.5 C3.80981455 17.19734891 1.76679951 17.35478547 -2.37109375 17.109375 C-4.5 16.625 -4.5 16.625 -7.0625 14.5 C-8.76523868 11.09452264 -9.20338515 9.37638748 -8.5 5.625 C-5.89210172 1.98974785 -4.4297642 0.79102932 0 0 Z " fill="#9CC7FF" transform="translate(284.5,246.375)"/>
<path d="M0 0 C2.875 1.5 2.875 1.5 5 4 C5.94237143 7.99893269 5.61136591 10.98105682 3.5 14.5 C-0.03588973 16.62153384 -2.97901723 16.791013 -7 16 C-9.5 14.5 -9.5 14.5 -11 12 C-11.60443392 9.19082139 -11.66040854 6.80242927 -11 4 C-7.72794548 0.1505241 -4.96702569 -0.82783761 0 0 Z " fill="#9BC6FF" transform="translate(207,247)"/>
<path d="M0 0 C0.99 0.33 1.98 0.66 3 1 C3 12.55 3 24.1 3 36 C1.68 36 0.36 36 -1 36 C-1.02465098 31.03377651 -1.04283649 26.06758834 -1.05493164 21.10131836 C-1.0599719 19.41055684 -1.06680405 17.71979971 -1.07543945 16.02905273 C-1.08751857 13.60399293 -1.09323123 11.17899056 -1.09765625 8.75390625 C-1.10281754 7.99348526 -1.10797882 7.23306427 -1.11329651 6.44960022 C-1.11349238 4.6326743 -1.06197277 2.81586873 -1 1 C-0.67 0.67 -0.34 0.34 0 0 Z " fill="#B3D3FF" transform="translate(231,214)"/>
<path d="M0 0 C0.66 0 1.32 0 2 0 C2 7.92 2 15.84 2 24 C1.01 24 0.02 24 -1 24 C-1.02887236 20.18751574 -1.04675492 16.3750593 -1.0625 12.5625 C-1.07087891 11.47388672 -1.07925781 10.38527344 -1.08789062 9.26367188 C-1.09111328 8.22919922 -1.09433594 7.19472656 -1.09765625 6.12890625 C-1.10289307 5.17056885 -1.10812988 4.21223145 -1.11352539 3.22485352 C-1 1 -1 1 0 0 Z " fill="#A2CAFF" transform="translate(282,211)"/>
<path d="M0 0 C2.97 0 5.94 0 9 0 C9 1.32 9 2.64 9 4 C6.03 4 3.06 4 0 4 C0 2.68 0 1.36 0 0 Z " fill="#9AC6FF" transform="translate(240,218)"/>
</svg>
